<svg xmlns="http://www.w3.org/2000/svg" xmlns:xlink="http://www.w3.org/1999/xlink" width="1280" zoomAndPan="magnify" viewBox="0 0 960 540.000001" height="720" preserveAspectRatio="xMidYMid meet" version="1.0"><defs><g/><clipPath id="id1"><path d="M 332.328125 73 L 469 73 L 469 250 L 332.328125 250 Z M 332.328125 73 " clip-rule="nonzero"/></clipPath><clipPath id="id2"><path d="M 364 32.246094 L 469 32.246094 L 469 83 L 364 83 Z M 364 32.246094 " clip-rule="nonzero"/></clipPath><clipPath id="id3"><path d="M 480 32.246094 L 585 32.246094 L 585 83 L 480 83 Z M 480 32.246094 " clip-rule="nonzero"/></clipPath><clipPath id="id4"><path d="M 540 186 L 628 186 L 628 312.976562 L 540 312.976562 Z M 540 186 " clip-rule="nonzero"/></clipPath></defs><g clip-path="url(#id1)"><path fill="#100f0d" d="M 332.261719 73.882812 L 347.8125 228.523438 C 387.90625 226.25 428.207031 232.867188 468.746094 249.347656 L 468.746094 97.382812 C 419.140625 78.773438 373.988281 71.832031 332.261719 73.882812 " fill-opacity="1" fill-rule="nonzero"/></g><g clip-path="url(#id2)"><path fill="#100f0d" d="M 366.144531 60.683594 C 399.363281 62.839844 433.734375 70.292969 468.746094 82.980469 L 468.746094 75.605469 C 435.09375 50.914062 397.175781 34.324219 364.679688 32.320312 L 366.144531 60.683594 " fill-opacity="1" fill-rule="nonzero"/></g><path fill="#100f0d" d="M 552.894531 185.027344 C 558.183594 181.824219 563.867188 180.386719 569.253906 179.347656 L 572.816406 178.578125 C 573.808594 178.347656 574.851562 178.171875 575.976562 177.992188 C 573.90625 170.136719 569.878906 162.546875 564.050781 155.78125 C 558.539062 149.367188 551.132812 145.035156 543.320312 140.425781 C 539.292969 138.078125 535.1875 135.6875 531.210938 132.886719 C 516.664062 122.777344 507.625 107.289062 505.371094 88.824219 C 497.105469 91.308594 488.695312 94.195312 480.160156 97.402344 L 480.160156 249.367188 C 498.234375 242 516.257812 236.640625 534.234375 233.152344 C 534.332031 232.566406 534.371094 232.027344 534.464844 231.441406 C 534.734375 229.273438 534.957031 227.058594 535.226562 224.808594 C 536.132812 216.046875 537.222656 206.113281 541.777344 197.089844 C 544.3125 192.125 548.15625 187.917969 552.894531 185.027344 " fill-opacity="1" fill-rule="nonzero"/><path fill="#100f0d" d="M 538.9375 121.777344 C 542.5 124.269531 546.210938 126.4375 550.140625 128.777344 C 558.589844 133.695312 567.355469 138.847656 574.351562 146.972656 C 582.308594 156.234375 587.597656 166.792969 589.851562 177.757812 C 591.75 177.992188 593.644531 178.308594 595.449219 178.625 L 596.671875 178.847656 C 599.203125 179.300781 602.414062 179.925781 605.890625 180.964844 L 616.640625 73.882812 C 585.96875 72.390625 553.394531 75.742188 518.5625 85.03125 C 520.003906 100.609375 527.097656 113.566406 538.9375 121.777344 " fill-opacity="1" fill-rule="nonzero"/><g clip-path="url(#id3)"><path fill="#100f0d" d="M 584.234375 32.320312 C 551.738281 34.324219 513.820312 50.914062 480.171875 75.605469 L 480.171875 82.980469 C 515.179688 70.292969 549.550781 62.839844 582.769531 60.683594 L 584.234375 32.320312 " fill-opacity="1" fill-rule="nonzero"/></g><g clip-path="url(#id4)"><path fill="#100f0d" d="M 593.859375 236.1875 C 593.714844 240.921875 589.910156 243.851562 583.753906 244.15625 C 578.597656 244.4375 574.714844 242.039062 574.601562 237.457031 C 574.496094 232.847656 574.476562 228.207031 574.589844 223.59375 C 574.667969 219.050781 574.878906 214.515625 575.167969 209.992188 C 575.46875 205.304688 580.332031 202.425781 585.574219 202.875 C 590.84375 203.328125 593.570312 205.929688 593.839844 210.894531 C 593.859375 211.097656 593.867188 211.328125 593.867188 211.550781 C 593.933594 215.507812 593.886719 219.484375 593.886719 223.460938 C 593.886719 227.714844 593.984375 231.941406 593.859375 236.1875 Z M 625.023438 232.652344 C 623.617188 222.179688 623.453125 210.78125 618.578125 201.171875 C 613.894531 191.980469 604.175781 189.429688 594.773438 187.664062 C 594.464844 187.597656 594.15625 187.550781 593.839844 187.484375 C 589.347656 186.683594 584.726562 186.039062 580.1875 186.511719 C 578.308594 186.703125 576.449219 187.058594 574.589844 187.445312 C 573.40625 187.675781 572.230469 187.933594 571.046875 188.175781 C 566.410156 189.109375 561.671875 190.292969 557.597656 192.757812 C 554.261719 194.800781 551.613281 197.699219 549.851562 201.171875 C 544.976562 210.78125 544.8125 222.179688 543.398438 232.652344 C 541.730469 244.871094 540.574219 257.164062 540.574219 269.496094 C 540.574219 294.007812 560.054688 311.75 584.214844 313.144531 C 608.375 311.75 627.855469 294.007812 627.855469 269.496094 C 627.855469 257.164062 626.699219 244.871094 625.023438 232.652344 " fill-opacity="1" fill-rule="nonzero"/></g><g fill="#545454" fill-opacity="1"><g transform="translate(38.143632, 409.936555)"><g><path d="M 68.53125 -8.5625 C 68.894531 -7.613281 69.078125 -6.738281 69.078125 -5.9375 C 69.078125 -4.03125 68.453125 -2.472656 67.203125 -1.265625 C 65.960938 -0.0546875 64.539062 0.546875 62.9375 0.546875 C 61.613281 0.546875 60.421875 0.144531 59.359375 -0.65625 C 58.296875 -1.457031 57.472656 -2.554688 56.890625 -3.953125 L 51.1875 -17.25 L 18.453125 -17.25 L 12.734375 -3.84375 C 12.222656 -2.445312 11.4375 -1.363281 10.375 -0.59375 C 9.3125 0.164062 8.160156 0.546875 6.921875 0.546875 C 5.015625 0.546875 3.566406 0.0351562 2.578125 -0.984375 C 1.585938 -2.015625 1.09375 -3.40625 1.09375 -5.15625 C 1.09375 -5.820312 1.203125 -6.519531 1.421875 -7.25 L 28.78125 -72.921875 C 29.363281 -74.390625 30.238281 -75.523438 31.40625 -76.328125 C 32.582031 -77.128906 33.898438 -77.457031 35.359375 -77.3125 C 36.679688 -77.3125 37.910156 -76.925781 39.046875 -76.15625 C 40.179688 -75.394531 41.003906 -74.316406 41.515625 -72.921875 Z M 23.828125 -29.875 L 45.796875 -29.875 L 34.703125 -55.578125 Z M 23.828125 -29.875 "/></g></g></g><g fill="#545454" fill-opacity="1"><g transform="translate(108.316934, 409.936555)"><g><path d="M 3.734375 -9.109375 C 3.078125 -9.992188 2.75 -11.09375 2.75 -12.40625 C 2.75 -14.3125 3.695312 -15.925781 5.59375 -17.25 C 6.625 -17.90625 7.6875 -18.234375 8.78125 -18.234375 C 10.320312 -18.234375 11.785156 -17.535156 13.171875 -16.140625 C 15.367188 -13.867188 17.65625 -12.179688 20.03125 -11.078125 C 22.414062 -9.984375 25.296875 -9.4375 28.671875 -9.4375 C 34.378906 -9.664062 37.234375 -11.828125 37.234375 -15.921875 C 37.234375 -18.046875 36.257812 -19.65625 34.3125 -20.75 C 32.375 -21.851562 29.359375 -22.953125 25.265625 -24.046875 C 21.015625 -25.222656 17.550781 -26.394531 14.875 -27.5625 C 12.207031 -28.738281 9.898438 -30.515625 7.953125 -32.890625 C 6.015625 -35.273438 5.046875 -38.476562 5.046875 -42.5 C 5.046875 -46.019531 6.050781 -49.078125 8.0625 -51.671875 C 10.082031 -54.273438 12.722656 -56.289062 15.984375 -57.71875 C 19.242188 -59.144531 22.703125 -59.859375 26.359375 -59.859375 C 30.085938 -59.859375 33.816406 -59.160156 37.546875 -57.765625 C 41.285156 -56.378906 44.21875 -54.332031 46.34375 -51.625 C 47.300781 -50.445312 47.78125 -49.128906 47.78125 -47.671875 C 47.78125 -45.984375 47.082031 -44.585938 45.6875 -43.484375 C 44.664062 -42.679688 43.492188 -42.28125 42.171875 -42.28125 C 40.566406 -42.28125 39.25 -42.796875 38.21875 -43.828125 C 36.90625 -45.429688 35.203125 -46.707031 33.109375 -47.65625 C 31.023438 -48.613281 28.664062 -49.09375 26.03125 -49.09375 C 20.46875 -49.09375 17.6875 -47.078125 17.6875 -43.046875 C 17.6875 -41.441406 18.195312 -40.144531 19.21875 -39.15625 C 20.238281 -38.164062 21.535156 -37.394531 23.109375 -36.84375 C 24.691406 -36.300781 26.910156 -35.625 29.765625 -34.8125 C 33.710938 -33.71875 37.003906 -32.582031 39.640625 -31.40625 C 42.285156 -30.238281 44.519531 -28.445312 46.34375 -26.03125 C 48.175781 -23.613281 49.09375 -20.425781 49.09375 -16.46875 C 49.09375 -12.882812 48.03125 -9.753906 45.90625 -7.078125 C 43.78125 -4.410156 41.050781 -2.378906 37.71875 -0.984375 C 34.394531 0.398438 30.972656 1.09375 27.453125 1.09375 C 22.617188 1.09375 18.113281 0.289062 13.9375 -1.3125 C 9.769531 -2.925781 6.367188 -5.523438 3.734375 -9.109375 Z M 3.734375 -9.109375 "/></g></g></g><g fill="#545454" fill-opacity="1"><g transform="translate(161.248913, 409.936555)"><g><path d="M 3.734375 -9.109375 C 3.078125 -9.992188 2.75 -11.09375 2.75 -12.40625 C 2.75 -14.3125 3.695312 -15.925781 5.59375 -17.25 C 6.625 -17.90625 7.6875 -18.234375 8.78125 -18.234375 C 10.320312 -18.234375 11.785156 -17.535156 13.171875 -16.140625 C 15.367188 -13.867188 17.65625 -12.179688 20.03125 -11.078125 C 22.414062 -9.984375 25.296875 -9.4375 28.671875 -9.4375 C 34.378906 -9.664062 37.234375 -11.828125 37.234375 -15.921875 C 37.234375 -18.046875 36.257812 -19.65625 34.3125 -20.75 C 32.375 -21.851562 29.359375 -22.953125 25.265625 -24.046875 C 21.015625 -25.222656 17.550781 -26.394531 14.875 -27.5625 C 12.207031 -28.738281 9.898438 -30.515625 7.953125 -32.890625 C 6.015625 -35.273438 5.046875 -38.476562 5.046875 -42.5 C 5.046875 -46.019531 6.050781 -49.078125 8.0625 -51.671875 C 10.082031 -54.273438 12.722656 -56.289062 15.984375 -57.71875 C 19.242188 -59.144531 22.703125 -59.859375 26.359375 -59.859375 C 30.085938 -59.859375 33.816406 -59.160156 37.546875 -57.765625 C 41.285156 -56.378906 44.21875 -54.332031 46.34375 -51.625 C 47.300781 -50.445312 47.78125 -49.128906 47.78125 -47.671875 C 47.78125 -45.984375 47.082031 -44.585938 45.6875 -43.484375 C 44.664062 -42.679688 43.492188 -42.28125 42.171875 -42.28125 C 40.566406 -42.28125 39.25 -42.796875 38.21875 -43.828125 C 36.90625 -45.429688 35.203125 -46.707031 33.109375 -47.65625 C 31.023438 -48.613281 28.664062 -49.09375 26.03125 -49.09375 C 20.46875 -49.09375 17.6875 -47.078125 17.6875 -43.046875 C 17.6875 -41.441406 18.195312 -40.144531 19.21875 -39.15625 C 20.238281 -38.164062 21.535156 -37.394531 23.109375 -36.84375 C 24.691406 -36.300781 26.910156 -35.625 29.765625 -34.8125 C 33.710938 -33.71875 37.003906 -32.582031 39.640625 -31.40625 C 42.285156 -30.238281 44.519531 -28.445312 46.34375 -26.03125 C 48.175781 -23.613281 49.09375 -20.425781 49.09375 -16.46875 C 49.09375 -12.882812 48.03125 -9.753906 45.90625 -7.078125 C 43.78125 -4.410156 41.050781 -2.378906 37.71875 -0.984375 C 34.394531 0.398438 30.972656 1.09375 27.453125 1.09375 C 22.617188 1.09375 18.113281 0.289062 13.9375 -1.3125 C 9.769531 -2.925781 6.367188 -5.523438 3.734375 -9.109375 Z M 3.734375 -9.109375 "/></g></g></g><g fill="#545454" fill-opacity="1"><g transform="translate(214.180892, 409.936555)"><g><path d="M 19.546875 -6.703125 C 19.546875 -4.796875 18.921875 -3.203125 17.671875 -1.921875 C 16.429688 -0.640625 14.859375 0 12.953125 0 C 11.054688 0 9.484375 -0.640625 8.234375 -1.921875 C 6.992188 -3.203125 6.375 -4.796875 6.375 -6.703125 L 6.375 -52.0625 C 6.375 -53.96875 6.992188 -55.5625 8.234375 -56.84375 C 9.484375 -58.125 11.054688 -58.765625 12.953125 -58.765625 C 14.859375 -58.765625 16.429688 -58.125 17.671875 -56.84375 C 18.921875 -55.5625 19.546875 -53.96875 19.546875 -52.0625 Z M 12.859375 -65.890625 C 10.367188 -65.890625 8.609375 -66.289062 7.578125 -67.09375 C 6.554688 -67.90625 6.046875 -69.335938 6.046875 -71.390625 L 6.046875 -73.46875 C 6.046875 -75.519531 6.59375 -76.945312 7.6875 -77.75 C 8.789062 -78.5625 10.550781 -78.96875 12.96875 -78.96875 C 15.53125 -78.96875 17.320312 -78.5625 18.34375 -77.75 C 19.375 -76.945312 19.890625 -75.519531 19.890625 -73.46875 L 19.890625 -71.390625 C 19.890625 -69.265625 19.359375 -67.816406 18.296875 -67.046875 C 17.234375 -66.273438 15.421875 -65.890625 12.859375 -65.890625 Z M 12.859375 -65.890625 "/></g></g></g><g fill="#545454" fill-opacity="1"><g transform="translate(240.097797, 409.936555)"><g><path d="M 55.796875 -59.859375 C 57.691406 -59.859375 59.257812 -59.234375 60.5 -57.984375 C 61.75 -56.742188 62.375 -55.132812 62.375 -53.15625 L 62.375 -4.28125 C 62.375 4.644531 59.609375 11.25 54.078125 15.53125 C 48.554688 19.820312 41.550781 21.96875 33.0625 21.96875 C 30.863281 21.96875 27.84375 21.597656 24 20.859375 C 20.15625 20.128906 17.425781 19.398438 15.8125 18.671875 C 12.226562 17.128906 10.4375 15.003906 10.4375 12.296875 C 10.4375 11.785156 10.546875 11.203125 10.765625 10.546875 C 11.203125 8.929688 11.953125 7.703125 13.015625 6.859375 C 14.078125 6.015625 15.226562 5.59375 16.46875 5.59375 C 17.207031 5.59375 17.90625 5.707031 18.5625 5.9375 C 18.851562 6.007812 20.664062 6.6875 24 7.96875 C 27.332031 9.25 30.351562 9.890625 33.0625 9.890625 C 38.476562 9.890625 42.519531 8.804688 45.1875 6.640625 C 47.863281 4.484375 49.203125 1.425781 49.203125 -2.53125 L 49.203125 -7.796875 C 47.585938 -5.523438 45.148438 -3.472656 41.890625 -1.640625 C 38.640625 0.179688 35.144531 1.09375 31.40625 1.09375 C 26.28125 1.09375 21.613281 -0.203125 17.40625 -2.796875 C 13.195312 -5.398438 9.882812 -9.003906 7.46875 -13.609375 C 5.050781 -18.222656 3.84375 -23.460938 3.84375 -29.328125 C 3.84375 -35.179688 5.03125 -40.429688 7.40625 -45.078125 C 9.789062 -49.734375 13.050781 -53.359375 17.1875 -55.953125 C 21.320312 -58.554688 25.914062 -59.859375 30.96875 -59.859375 C 34.707031 -59.859375 38.1875 -59.085938 41.40625 -57.546875 C 44.625 -56.015625 47.222656 -54.148438 49.203125 -51.953125 L 49.203125 -53.15625 C 49.203125 -55.0625 49.820312 -56.65625 51.0625 -57.9375 C 52.3125 -59.21875 53.890625 -59.859375 55.796875 -59.859375 Z M 33.0625 -10.984375 C 37.96875 -10.984375 41.972656 -12.722656 45.078125 -16.203125 C 48.191406 -19.679688 49.75 -24.054688 49.75 -29.328125 C 49.75 -34.597656 48.191406 -38.988281 45.078125 -42.5 C 41.972656 -46.019531 37.96875 -47.78125 33.0625 -47.78125 C 28.15625 -47.78125 24.160156 -46.019531 21.078125 -42.5 C 18.003906 -38.988281 16.46875 -34.597656 16.46875 -29.328125 C 16.46875 -24.054688 18.003906 -19.679688 21.078125 -16.203125 C 24.160156 -12.722656 28.15625 -10.984375 33.0625 -10.984375 Z M 33.0625 -10.984375 "/></g></g></g><g fill="#545454" fill-opacity="1"><g transform="translate(309.612184, 409.936555)"><g><path d="M 38.546875 -59.859375 C 46.015625 -59.859375 51.175781 -57.640625 54.03125 -53.203125 C 56.882812 -48.773438 58.3125 -42.644531 58.3125 -34.8125 L 58.3125 -6.703125 C 58.3125 -4.796875 57.6875 -3.203125 56.4375 -1.921875 C 55.195312 -0.640625 53.628906 0 51.734375 0 C 49.828125 0 48.25 -0.640625 47 -1.921875 C 45.757812 -3.203125 45.140625 -4.796875 45.140625 -6.703125 L 45.140625 -34.8125 C 45.140625 -38.84375 44.296875 -42.007812 42.609375 -44.3125 C 40.929688 -46.625 38.039062 -47.78125 33.9375 -47.78125 C 29.6875 -47.78125 26.351562 -46.550781 23.9375 -44.09375 C 21.519531 -41.644531 20.3125 -38.550781 20.3125 -34.8125 L 20.3125 -6.703125 C 20.3125 -4.796875 19.6875 -3.203125 18.4375 -1.921875 C 17.195312 -0.640625 15.628906 0 13.734375 0 C 11.828125 0 10.25 -0.640625 9 -1.921875 C 7.757812 -3.203125 7.140625 -4.796875 7.140625 -6.703125 L 7.140625 -52.0625 C 7.140625 -53.96875 7.757812 -55.5625 9 -56.84375 C 10.25 -58.125 11.828125 -58.765625 13.734375 -58.765625 C 15.628906 -58.765625 17.195312 -58.125 18.4375 -56.84375 C 19.6875 -55.5625 20.3125 -53.96875 20.3125 -52.0625 L 20.3125 -50.1875 C 22.289062 -52.820312 24.875 -55.09375 28.0625 -57 C 31.25 -58.90625 34.742188 -59.859375 38.546875 -59.859375 Z M 38.546875 -59.859375 "/></g></g></g><g fill="#545454" fill-opacity="1"><g transform="translate(375.06333, 409.936555)"><g><path d="M 74.90625 -59.859375 C 82.15625 -59.859375 87.171875 -57.640625 89.953125 -53.203125 C 92.734375 -48.773438 94.125 -42.644531 94.125 -34.8125 L 94.125 -6.703125 C 94.125 -4.796875 93.5 -3.203125 92.25 -1.921875 C 91.007812 -0.640625 89.4375 0 87.53125 0 C 85.625 0 84.046875 -0.640625 82.796875 -1.921875 C 81.554688 -3.203125 80.9375 -4.796875 80.9375 -6.703125 L 80.9375 -34.8125 C 80.9375 -38.84375 80.148438 -42.007812 78.578125 -44.3125 C 77.003906 -46.625 74.242188 -47.78125 70.296875 -47.78125 C 66.191406 -47.78125 62.984375 -46.550781 60.671875 -44.09375 C 58.367188 -41.644531 57.21875 -38.550781 57.21875 -34.8125 L 57.21875 -6.703125 C 57.21875 -4.796875 56.59375 -3.203125 55.34375 -1.921875 C 54.101562 -0.640625 52.53125 0 50.625 0 C 48.726562 0 47.15625 -0.640625 45.90625 -1.921875 C 44.664062 -3.203125 44.046875 -4.796875 44.046875 -6.703125 L 44.046875 -34.8125 C 44.046875 -38.84375 43.253906 -42.007812 41.671875 -44.3125 C 40.097656 -46.625 37.335938 -47.78125 33.390625 -47.78125 C 29.285156 -47.78125 26.078125 -46.550781 23.765625 -44.09375 C 21.460938 -41.644531 20.3125 -38.550781 20.3125 -34.8125 L 20.3125 -6.703125 C 20.3125 -4.796875 19.6875 -3.203125 18.4375 -1.921875 C 17.195312 -0.640625 15.628906 0 13.734375 0 C 11.828125 0 10.25 -0.640625 9 -1.921875 C 7.757812 -3.203125 7.140625 -4.796875 7.140625 -6.703125 L 7.140625 -52.0625 C 7.140625 -53.96875 7.757812 -55.5625 9 -56.84375 C 10.25 -58.125 11.828125 -58.765625 13.734375 -58.765625 C 15.628906 -58.765625 17.195312 -58.125 18.4375 -56.84375 C 19.6875 -55.5625 20.3125 -53.96875 20.3125 -52.0625 L 20.3125 -50.296875 C 22.289062 -52.929688 24.800781 -55.179688 27.84375 -57.046875 C 30.882812 -58.921875 34.269531 -59.859375 38 -59.859375 C 47.226562 -59.859375 53.125 -55.832031 55.6875 -47.78125 C 57.363281 -50.851562 59.90625 -53.632812 63.3125 -56.125 C 66.71875 -58.613281 70.582031 -59.859375 74.90625 -59.859375 Z M 74.90625 -59.859375 "/></g></g></g><g fill="#545454" fill-opacity="1"><g transform="translate(476.314949, 409.936555)"><g><path d="M 59.859375 -30.75 C 59.785156 -28.988281 59.085938 -27.5625 57.765625 -26.46875 C 56.453125 -25.375 54.914062 -24.828125 53.15625 -24.828125 L 16.90625 -24.828125 C 17.789062 -20.503906 19.804688 -17.113281 22.953125 -14.65625 C 26.097656 -12.207031 29.648438 -10.984375 33.609375 -10.984375 C 36.609375 -10.984375 38.945312 -11.253906 40.625 -11.796875 C 42.3125 -12.347656 43.648438 -12.9375 44.640625 -13.5625 C 45.628906 -14.1875 46.304688 -14.609375 46.671875 -14.828125 C 47.992188 -15.484375 49.238281 -15.8125 50.40625 -15.8125 C 51.945312 -15.8125 53.265625 -15.257812 54.359375 -14.15625 C 55.460938 -13.0625 56.015625 -11.785156 56.015625 -10.328125 C 56.015625 -8.347656 54.988281 -6.550781 52.9375 -4.9375 C 50.882812 -3.257812 48.132812 -1.832031 44.6875 -0.65625 C 41.25 0.507812 37.773438 1.09375 34.265625 1.09375 C 28.117188 1.09375 22.753906 -0.1875 18.171875 -2.75 C 13.597656 -5.3125 10.066406 -8.84375 7.578125 -13.34375 C 5.085938 -17.84375 3.84375 -22.914062 3.84375 -28.5625 C 3.84375 -34.851562 5.160156 -40.378906 7.796875 -45.140625 C 10.429688 -49.898438 13.910156 -53.539062 18.234375 -56.0625 C 22.554688 -58.59375 27.164062 -59.859375 32.0625 -59.859375 C 36.894531 -59.859375 41.453125 -58.539062 45.734375 -55.90625 C 50.023438 -53.269531 53.453125 -49.71875 56.015625 -45.25 C 58.578125 -40.78125 59.859375 -35.945312 59.859375 -30.75 Z M 32.0625 -47.78125 C 23.570312 -47.78125 18.554688 -43.785156 17.015625 -35.796875 L 45.796875 -35.796875 L 45.796875 -36.578125 C 45.503906 -39.648438 44.003906 -42.285156 41.296875 -44.484375 C 38.585938 -46.679688 35.507812 -47.78125 32.0625 -47.78125 Z M 32.0625 -47.78125 "/></g></g></g><g fill="#545454" fill-opacity="1"><g transform="translate(540.009009, 409.936555)"><g><path d="M 38.546875 -59.859375 C 46.015625 -59.859375 51.175781 -57.640625 54.03125 -53.203125 C 56.882812 -48.773438 58.3125 -42.644531 58.3125 -34.8125 L 58.3125 -6.703125 C 58.3125 -4.796875 57.6875 -3.203125 56.4375 -1.921875 C 55.195312 -0.640625 53.628906 0 51.734375 0 C 49.828125 0 48.25 -0.640625 47 -1.921875 C 45.757812 -3.203125 45.140625 -4.796875 45.140625 -6.703125 L 45.140625 -34.8125 C 45.140625 -38.84375 44.296875 -42.007812 42.609375 -44.3125 C 40.929688 -46.625 38.039062 -47.78125 33.9375 -47.78125 C 29.6875 -47.78125 26.351562 -46.550781 23.9375 -44.09375 C 21.519531 -41.644531 20.3125 -38.550781 20.3125 -34.8125 L 20.3125 -6.703125 C 20.3125 -4.796875 19.6875 -3.203125 18.4375 -1.921875 C 17.195312 -0.640625 15.628906 0 13.734375 0 C 11.828125 0 10.25 -0.640625 9 -1.921875 C 7.757812 -3.203125 7.140625 -4.796875 7.140625 -6.703125 L 7.140625 -52.0625 C 7.140625 -53.96875 7.757812 -55.5625 9 -56.84375 C 10.25 -58.125 11.828125 -58.765625 13.734375 -58.765625 C 15.628906 -58.765625 17.195312 -58.125 18.4375 -56.84375 C 19.6875 -55.5625 20.3125 -53.96875 20.3125 -52.0625 L 20.3125 -50.1875 C 22.289062 -52.820312 24.875 -55.09375 28.0625 -57 C 31.25 -58.90625 34.742188 -59.859375 38.546875 -59.859375 Z M 38.546875 -59.859375 "/></g></g></g><g fill="#545454" fill-opacity="1"><g transform="translate(605.460185, 409.936555)"><g><path d="M 35.46875 -12.40625 C 36.5 -12.40625 37.429688 -11.910156 38.265625 -10.921875 C 39.109375 -9.929688 39.53125 -8.632812 39.53125 -7.03125 C 39.53125 -5.050781 38.453125 -3.382812 36.296875 -2.03125 C 34.140625 -0.675781 31.707031 0 29 0 C 24.457031 0 20.628906 -0.96875 17.515625 -2.90625 C 14.398438 -4.851562 12.84375 -8.972656 12.84375 -15.265625 L 12.84375 -45.578125 L 7.796875 -45.578125 C 6.035156 -45.578125 4.566406 -46.160156 3.390625 -47.328125 C 2.222656 -48.503906 1.640625 -49.972656 1.640625 -51.734375 C 1.640625 -53.410156 2.222656 -54.816406 3.390625 -55.953125 C 4.566406 -57.085938 6.035156 -57.65625 7.796875 -57.65625 L 12.84375 -57.65625 L 12.84375 -64.6875 C 12.84375 -66.59375 13.484375 -68.1875 14.765625 -69.46875 C 16.046875 -70.75 17.640625 -71.390625 19.546875 -71.390625 C 21.378906 -71.390625 22.914062 -70.75 24.15625 -69.46875 C 25.40625 -68.1875 26.03125 -66.59375 26.03125 -64.6875 L 26.03125 -57.65625 L 33.828125 -57.65625 C 35.585938 -57.65625 37.050781 -57.066406 38.21875 -55.890625 C 39.394531 -54.722656 39.984375 -53.265625 39.984375 -51.515625 C 39.984375 -49.828125 39.394531 -48.414062 38.21875 -47.28125 C 37.050781 -46.144531 35.585938 -45.578125 33.828125 -45.578125 L 26.03125 -45.578125 L 26.03125 -15.8125 C 26.03125 -14.28125 26.429688 -13.164062 27.234375 -12.46875 C 28.046875 -11.769531 29.144531 -11.421875 30.53125 -11.421875 C 31.113281 -11.421875 31.921875 -11.566406 32.953125 -11.859375 C 33.828125 -12.222656 34.664062 -12.40625 35.46875 -12.40625 Z M 35.46875 -12.40625 "/></g></g></g><g fill="#545454" fill-opacity="1"><g transform="translate(650.375496, 409.936555)"><g/></g></g><g fill="#545454" fill-opacity="1"><g transform="translate(681.124401, 409.936555)"><g><path d="M 63.921875 -76.875 C 65.972656 -76.875 67.617188 -76.25 68.859375 -75 C 70.109375 -73.757812 70.734375 -72.15625 70.734375 -70.1875 L 70.734375 -6.703125 C 70.734375 -4.796875 70.070312 -3.203125 68.75 -1.921875 C 67.4375 -0.640625 65.753906 0 63.703125 0 C 61.867188 0 60.289062 -0.640625 58.96875 -1.921875 C 57.65625 -3.203125 57 -4.796875 57 -6.703125 L 57 -32.296875 L 21.96875 -32.296875 L 21.96875 -6.703125 C 21.96875 -4.796875 21.269531 -3.203125 19.875 -1.921875 C 18.488281 -0.640625 16.878906 0 15.046875 0 C 13.066406 0 11.4375 -0.640625 10.15625 -1.921875 C 8.875 -3.203125 8.234375 -4.796875 8.234375 -6.703125 L 8.234375 -70.1875 C 8.234375 -72.082031 8.890625 -73.671875 10.203125 -74.953125 C 11.523438 -76.234375 13.210938 -76.875 15.265625 -76.875 C 17.097656 -76.875 18.671875 -76.234375 19.984375 -74.953125 C 21.304688 -73.671875 21.96875 -72.082031 21.96875 -70.1875 L 21.96875 -44.921875 L 57 -44.921875 L 57 -70.1875 C 57 -72.082031 57.691406 -73.671875 59.078125 -74.953125 C 60.472656 -76.234375 62.085938 -76.875 63.921875 -76.875 Z M 63.921875 -76.875 "/></g></g></g><g fill="#545454" fill-opacity="1"><g transform="translate(760.083099, 409.936555)"><g><path d="M 59.859375 -30.75 C 59.785156 -28.988281 59.085938 -27.5625 57.765625 -26.46875 C 56.453125 -25.375 54.914062 -24.828125 53.15625 -24.828125 L 16.90625 -24.828125 C 17.789062 -20.503906 19.804688 -17.113281 22.953125 -14.65625 C 26.097656 -12.207031 29.648438 -10.984375 33.609375 -10.984375 C 36.609375 -10.984375 38.945312 -11.253906 40.625 -11.796875 C 42.3125 -12.347656 43.648438 -12.9375 44.640625 -13.5625 C 45.628906 -14.1875 46.304688 -14.609375 46.671875 -14.828125 C 47.992188 -15.484375 49.238281 -15.8125 50.40625 -15.8125 C 51.945312 -15.8125 53.265625 -15.257812 54.359375 -14.15625 C 55.460938 -13.0625 56.015625 -11.785156 56.015625 -10.328125 C 56.015625 -8.347656 54.988281 -6.550781 52.9375 -4.9375 C 50.882812 -3.257812 48.132812 -1.832031 44.6875 -0.65625 C 41.25 0.507812 37.773438 1.09375 34.265625 1.09375 C 28.117188 1.09375 22.753906 -0.1875 18.171875 -2.75 C 13.597656 -5.3125 10.066406 -8.84375 7.578125 -13.34375 C 5.085938 -17.84375 3.84375 -22.914062 3.84375 -28.5625 C 3.84375 -34.851562 5.160156 -40.378906 7.796875 -45.140625 C 10.429688 -49.898438 13.910156 -53.539062 18.234375 -56.0625 C 22.554688 -58.59375 27.164062 -59.859375 32.0625 -59.859375 C 36.894531 -59.859375 41.453125 -58.539062 45.734375 -55.90625 C 50.023438 -53.269531 53.453125 -49.71875 56.015625 -45.25 C 58.578125 -40.78125 59.859375 -35.945312 59.859375 -30.75 Z M 32.0625 -47.78125 C 23.570312 -47.78125 18.554688 -43.785156 17.015625 -35.796875 L 45.796875 -35.796875 L 45.796875 -36.578125 C 45.503906 -39.648438 44.003906 -42.285156 41.296875 -44.484375 C 38.585938 -46.679688 35.507812 -47.78125 32.0625 -47.78125 Z M 32.0625 -47.78125 "/></g></g></g><g fill="#545454" fill-opacity="1"><g transform="translate(823.777189, 409.936555)"><g><path d="M 21.421875 -6.703125 C 21.421875 -4.796875 20.78125 -3.203125 19.5 -1.921875 C 18.21875 -0.640625 16.625 0 14.71875 0 C 12.882812 0 11.34375 -0.640625 10.09375 -1.921875 C 8.851562 -3.203125 8.234375 -4.796875 8.234375 -6.703125 L 8.234375 -74.578125 C 8.234375 -76.472656 8.875 -78.0625 10.15625 -79.34375 C 11.4375 -80.625 13.03125 -81.265625 14.9375 -81.265625 C 16.769531 -81.265625 18.304688 -80.625 19.546875 -79.34375 C 20.796875 -78.0625 21.421875 -76.472656 21.421875 -74.578125 Z M 21.421875 -6.703125 "/></g></g></g><g fill="#545454" fill-opacity="1"><g transform="translate(853.427893, 409.936555)"><g><path d="M 37.5625 -59.859375 C 42.613281 -59.859375 47.1875 -58.554688 51.28125 -55.953125 C 55.382812 -53.359375 58.625 -49.753906 61 -45.140625 C 63.382812 -40.523438 64.578125 -35.289062 64.578125 -29.4375 C 64.578125 -23.570312 63.40625 -18.316406 61.0625 -13.671875 C 58.71875 -9.023438 55.515625 -5.398438 51.453125 -2.796875 C 47.390625 -0.203125 42.90625 1.09375 38 1.09375 C 34.488281 1.09375 31.175781 0.378906 28.0625 -1.046875 C 24.945312 -2.472656 22.363281 -4.210938 20.3125 -6.265625 L 20.3125 15.265625 C 20.3125 17.171875 19.6875 18.765625 18.4375 20.046875 C 17.195312 21.328125 15.628906 21.96875 13.734375 21.96875 C 11.828125 21.96875 10.25 21.34375 9 20.09375 C 7.757812 18.851562 7.140625 17.242188 7.140625 15.265625 L 7.140625 -52.0625 C 7.140625 -53.96875 7.757812 -55.5625 9 -56.84375 C 10.25 -58.125 11.828125 -58.765625 13.734375 -58.765625 C 15.628906 -58.765625 17.195312 -58.125 18.4375 -56.84375 C 19.6875 -55.5625 20.3125 -53.96875 20.3125 -52.0625 L 20.3125 -51.625 C 22.070312 -53.820312 24.523438 -55.742188 27.671875 -57.390625 C 30.828125 -59.035156 34.125 -59.859375 37.5625 -59.859375 Z M 35.90625 -10.984375 C 40.59375 -10.984375 44.4375 -12.738281 47.4375 -16.25 C 50.445312 -19.769531 51.953125 -24.164062 51.953125 -29.4375 C 51.953125 -34.707031 50.46875 -39.082031 47.5 -42.5625 C 44.53125 -46.039062 40.664062 -47.78125 35.90625 -47.78125 C 31.15625 -47.78125 27.273438 -46.039062 24.265625 -42.5625 C 21.265625 -39.082031 19.765625 -34.707031 19.765625 -29.4375 C 19.765625 -24.164062 21.265625 -19.769531 24.265625 -16.25 C 27.273438 -12.738281 31.15625 -10.984375 35.90625 -10.984375 Z M 35.90625 -10.984375 "/></g></g></g><g fill="#a6a6a6" fill-opacity="1"><g transform="translate(99.644038, 475.554628)"><g><path d="M 31.203125 0 L 27.65625 0 L 21.421875 -20.6875 C 21.128906 -21.601562 20.796875 -22.753906 20.421875 -24.140625 C 20.054688 -25.535156 19.867188 -26.375 19.859375 -26.65625 C 19.546875 -24.800781 19.050781 -22.769531 18.375 -20.5625 L 12.34375 0 L 8.78125 0 L 0.578125 -30.890625 L 4.375 -30.890625 L 9.25 -11.8125 C 9.925781 -9.132812 10.421875 -6.710938 10.734375 -4.546875 C 11.109375 -7.117188 11.671875 -9.640625 12.421875 -12.109375 L 17.953125 -30.890625 L 21.765625 -30.890625 L 27.5625 -11.9375 C 28.238281 -9.75 28.8125 -7.285156 29.28125 -4.546875 C 29.550781 -6.546875 30.054688 -8.984375 30.796875 -11.859375 L 35.65625 -30.890625 L 39.46875 -30.890625 Z M 31.203125 0 "/></g></g></g><g fill="#a6a6a6" fill-opacity="1"><g transform="translate(144.45713, 475.554628)"><g><path d="M 13.5 0.421875 C 10.070312 0.421875 7.367188 -0.617188 5.390625 -2.703125 C 3.410156 -4.785156 2.421875 -7.679688 2.421875 -11.390625 C 2.421875 -15.117188 3.335938 -18.082031 5.171875 -20.28125 C 7.015625 -22.476562 9.488281 -23.578125 12.59375 -23.578125 C 15.488281 -23.578125 17.78125 -22.617188 19.46875 -20.703125 C 21.164062 -18.796875 22.015625 -16.28125 22.015625 -13.15625 L 22.015625 -10.9375 L 6.0625 -10.9375 C 6.132812 -8.21875 6.820312 -6.15625 8.125 -4.75 C 9.425781 -3.34375 11.257812 -2.640625 13.625 -2.640625 C 16.113281 -2.640625 18.578125 -3.160156 21.015625 -4.203125 L 21.015625 -1.078125 C 19.773438 -0.546875 18.601562 -0.164062 17.5 0.0625 C 16.394531 0.300781 15.0625 0.421875 13.5 0.421875 Z M 12.546875 -20.640625 C 10.691406 -20.640625 9.207031 -20.03125 8.09375 -18.8125 C 6.988281 -17.601562 6.335938 -15.929688 6.140625 -13.796875 L 18.25 -13.796875 C 18.25 -16.003906 17.753906 -17.695312 16.765625 -18.875 C 15.785156 -20.050781 14.378906 -20.640625 12.546875 -20.640625 Z M 12.546875 -20.640625 "/></g></g></g><g fill="#a6a6a6" fill-opacity="1"><g transform="translate(173.489812, 475.554628)"><g/></g></g><g fill="#a6a6a6" fill-opacity="1"><g transform="translate(189.488316, 475.554628)"><g><path d="M 12.96875 0.421875 C 9.613281 0.421875 7.015625 -0.609375 5.171875 -2.671875 C 3.335938 -4.734375 2.421875 -7.648438 2.421875 -11.421875 C 2.421875 -15.296875 3.351562 -18.289062 5.21875 -20.40625 C 7.09375 -22.519531 9.753906 -23.578125 13.203125 -23.578125 C 14.316406 -23.578125 15.425781 -23.457031 16.53125 -23.21875 C 17.644531 -22.976562 18.519531 -22.695312 19.15625 -22.375 L 18.078125 -19.390625 C 17.304688 -19.703125 16.460938 -19.957031 15.546875 -20.15625 C 14.628906 -20.363281 13.820312 -20.46875 13.125 -20.46875 C 8.414062 -20.46875 6.0625 -17.46875 6.0625 -11.46875 C 6.0625 -8.625 6.632812 -6.441406 7.78125 -4.921875 C 8.925781 -3.398438 10.628906 -2.640625 12.890625 -2.640625 C 14.816406 -2.640625 16.796875 -3.054688 18.828125 -3.890625 L 18.828125 -0.78125 C 17.273438 0.0195312 15.320312 0.421875 12.96875 0.421875 Z M 12.96875 0.421875 "/></g></g></g><g fill="#a6a6a6" fill-opacity="1"><g transform="translate(214.84524, 475.554628)"><g><path d="M 17.953125 0 L 17.265625 -3.296875 L 17.09375 -3.296875 C 15.9375 -1.847656 14.785156 -0.863281 13.640625 -0.34375 C 12.492188 0.164062 11.0625 0.421875 9.34375 0.421875 C 7.039062 0.421875 5.238281 -0.164062 3.9375 -1.34375 C 2.632812 -2.53125 1.984375 -4.21875 1.984375 -6.40625 C 1.984375 -11.082031 5.722656 -13.53125 13.203125 -13.75 L 17.140625 -13.875 L 17.140625 -15.3125 C 17.140625 -17.132812 16.742188 -18.476562 15.953125 -19.34375 C 15.171875 -20.207031 13.921875 -20.640625 12.203125 -20.640625 C 10.273438 -20.640625 8.09375 -20.046875 5.65625 -18.859375 L 4.578125 -21.546875 C 5.722656 -22.171875 6.972656 -22.65625 8.328125 -23 C 9.691406 -23.351562 11.054688 -23.53125 12.421875 -23.53125 C 15.179688 -23.53125 17.226562 -22.914062 18.5625 -21.6875 C 19.894531 -20.46875 20.5625 -18.503906 20.5625 -15.796875 L 20.5625 0 Z M 10.03125 -2.46875 C 12.21875 -2.46875 13.929688 -3.066406 15.171875 -4.265625 C 16.421875 -5.460938 17.046875 -7.140625 17.046875 -9.296875 L 17.046875 -11.390625 L 13.546875 -11.234375 C 10.753906 -11.140625 8.738281 -10.707031 7.5 -9.9375 C 6.269531 -9.164062 5.65625 -7.972656 5.65625 -6.359375 C 5.65625 -5.085938 6.039062 -4.117188 6.8125 -3.453125 C 7.582031 -2.796875 8.65625 -2.46875 10.03125 -2.46875 Z M 10.03125 -2.46875 "/></g></g></g><g fill="#a6a6a6" fill-opacity="1"><g transform="translate(243.666675, 475.554628)"><g><path d="M 19.5625 0 L 19.5625 -14.984375 C 19.5625 -16.867188 19.128906 -18.273438 18.265625 -19.203125 C 17.410156 -20.128906 16.066406 -20.59375 14.234375 -20.59375 C 11.816406 -20.59375 10.039062 -19.9375 8.90625 -18.625 C 7.78125 -17.320312 7.21875 -15.160156 7.21875 -12.140625 L 7.21875 0 L 3.71875 0 L 3.71875 -23.15625 L 6.5625 -23.15625 L 7.140625 -19.984375 L 7.3125 -19.984375 C 8.03125 -21.128906 9.035156 -22.015625 10.328125 -22.640625 C 11.628906 -23.265625 13.070312 -23.578125 14.65625 -23.578125 C 17.445312 -23.578125 19.546875 -22.90625 20.953125 -21.5625 C 22.359375 -20.21875 23.0625 -18.066406 23.0625 -15.109375 L 23.0625 0 Z M 19.5625 0 "/></g></g></g><g fill="#a6a6a6" fill-opacity="1"><g transform="translate(274.98086, 475.554628)"><g/></g></g><g fill="#a6a6a6" fill-opacity="1"><g transform="translate(290.979356, 475.554628)"><g><path d="M 19.5625 0 L 19.5625 -14.984375 C 19.5625 -16.867188 19.128906 -18.273438 18.265625 -19.203125 C 17.410156 -20.128906 16.066406 -20.59375 14.234375 -20.59375 C 11.796875 -20.59375 10.015625 -19.929688 8.890625 -18.609375 C 7.773438 -17.285156 7.21875 -15.117188 7.21875 -12.109375 L 7.21875 0 L 3.71875 0 L 3.71875 -32.875 L 7.21875 -32.875 L 7.21875 -22.921875 C 7.21875 -21.722656 7.164062 -20.726562 7.0625 -19.9375 L 7.265625 -19.9375 C 7.953125 -21.050781 8.929688 -21.925781 10.203125 -22.5625 C 11.484375 -23.207031 12.941406 -23.53125 14.578125 -23.53125 C 17.410156 -23.53125 19.53125 -22.859375 20.9375 -21.515625 C 22.351562 -20.171875 23.0625 -18.035156 23.0625 -15.109375 L 23.0625 0 Z M 19.5625 0 "/></g></g></g><g fill="#a6a6a6" fill-opacity="1"><g transform="translate(322.293542, 475.554628)"><g><path d="M 13.5 0.421875 C 10.070312 0.421875 7.367188 -0.617188 5.390625 -2.703125 C 3.410156 -4.785156 2.421875 -7.679688 2.421875 -11.390625 C 2.421875 -15.117188 3.335938 -18.082031 5.171875 -20.28125 C 7.015625 -22.476562 9.488281 -23.578125 12.59375 -23.578125 C 15.488281 -23.578125 17.78125 -22.617188 19.46875 -20.703125 C 21.164062 -18.796875 22.015625 -16.28125 22.015625 -13.15625 L 22.015625 -10.9375 L 6.0625 -10.9375 C 6.132812 -8.21875 6.820312 -6.15625 8.125 -4.75 C 9.425781 -3.34375 11.257812 -2.640625 13.625 -2.640625 C 16.113281 -2.640625 18.578125 -3.160156 21.015625 -4.203125 L 21.015625 -1.078125 C 19.773438 -0.546875 18.601562 -0.164062 17.5 0.0625 C 16.394531 0.300781 15.0625 0.421875 13.5 0.421875 Z M 12.546875 -20.640625 C 10.691406 -20.640625 9.207031 -20.03125 8.09375 -18.8125 C 6.988281 -17.601562 6.335938 -15.929688 6.140625 -13.796875 L 18.25 -13.796875 C 18.25 -16.003906 17.753906 -17.695312 16.765625 -18.875 C 15.785156 -20.050781 14.378906 -20.640625 12.546875 -20.640625 Z M 12.546875 -20.640625 "/></g></g></g><g fill="#a6a6a6" fill-opacity="1"><g transform="translate(351.32622, 475.554628)"><g><path d="M 7.21875 0 L 3.71875 0 L 3.71875 -32.875 L 7.21875 -32.875 Z M 7.21875 0 "/></g></g></g><g fill="#a6a6a6" fill-opacity="1"><g transform="translate(367.028965, 475.554628)"><g><path d="M 14.5 0.421875 C 12.988281 0.421875 11.609375 0.144531 10.359375 -0.40625 C 9.117188 -0.96875 8.070312 -1.828125 7.21875 -2.984375 L 6.96875 -2.984375 C 7.132812 -1.628906 7.21875 -0.347656 7.21875 0.859375 L 7.21875 10.390625 L 3.71875 10.390625 L 3.71875 -23.15625 L 6.5625 -23.15625 L 7.0625 -19.984375 L 7.21875 -19.984375 C 8.125 -21.253906 9.175781 -22.171875 10.375 -22.734375 C 11.570312 -23.296875 12.945312 -23.578125 14.5 -23.578125 C 17.5625 -23.578125 19.925781 -22.523438 21.59375 -20.421875 C 23.269531 -18.328125 24.109375 -15.382812 24.109375 -11.59375 C 24.109375 -7.789062 23.257812 -4.835938 21.5625 -2.734375 C 19.863281 -0.628906 17.507812 0.421875 14.5 0.421875 Z M 13.984375 -20.59375 C 11.617188 -20.59375 9.90625 -19.9375 8.84375 -18.625 C 7.789062 -17.320312 7.25 -15.238281 7.21875 -12.375 L 7.21875 -11.59375 C 7.21875 -8.34375 7.757812 -6.015625 8.84375 -4.609375 C 9.9375 -3.210938 11.675781 -2.515625 14.0625 -2.515625 C 16.0625 -2.515625 17.628906 -3.320312 18.765625 -4.9375 C 19.898438 -6.5625 20.46875 -8.796875 20.46875 -11.640625 C 20.46875 -14.523438 19.898438 -16.738281 18.765625 -18.28125 C 17.628906 -19.820312 16.035156 -20.59375 13.984375 -20.59375 Z M 13.984375 -20.59375 "/></g></g></g><g fill="#a6a6a6" fill-opacity="1"><g transform="translate(398.3009, 475.554628)"><g/></g></g><g fill="#a6a6a6" fill-opacity="1"><g transform="translate(414.299396, 475.554628)"><g><path d="M 11.203125 -2.46875 C 11.816406 -2.46875 12.410156 -2.515625 12.984375 -2.609375 C 13.566406 -2.703125 14.023438 -2.796875 14.359375 -2.890625 L 14.359375 -0.21875 C 13.984375 -0.03125 13.425781 0.117188 12.6875 0.234375 C 11.945312 0.359375 11.28125 0.421875 10.6875 0.421875 C 6.207031 0.421875 3.96875 -1.9375 3.96875 -6.65625 L 3.96875 -20.421875 L 0.65625 -20.421875 L 0.65625 -22.125 L 3.96875 -23.578125 L 5.453125 -28.515625 L 7.484375 -28.515625 L 7.484375 -23.15625 L 14.203125 -23.15625 L 14.203125 -20.421875 L 7.484375 -20.421875 L 7.484375 -6.796875 C 7.484375 -5.410156 7.8125 -4.34375 8.46875 -3.59375 C 9.132812 -2.84375 10.046875 -2.46875 11.203125 -2.46875 Z M 11.203125 -2.46875 "/></g></g></g><g fill="#a6a6a6" fill-opacity="1"><g transform="translate(434.332795, 475.554628)"><g><path d="M 23.703125 -11.59375 C 23.703125 -7.820312 22.75 -4.875 20.84375 -2.75 C 18.945312 -0.632812 16.320312 0.421875 12.96875 0.421875 C 10.894531 0.421875 9.054688 -0.0625 7.453125 -1.03125 C 5.847656 -2.007812 4.609375 -3.40625 3.734375 -5.21875 C 2.859375 -7.03125 2.421875 -9.15625 2.421875 -11.59375 C 2.421875 -15.375 3.363281 -18.316406 5.25 -20.421875 C 7.144531 -22.523438 9.769531 -23.578125 13.125 -23.578125 C 16.363281 -23.578125 18.9375 -22.5 20.84375 -20.34375 C 22.75 -18.1875 23.703125 -15.269531 23.703125 -11.59375 Z M 6.0625 -11.59375 C 6.0625 -8.632812 6.648438 -6.378906 7.828125 -4.828125 C 9.015625 -3.285156 10.757812 -2.515625 13.0625 -2.515625 C 15.351562 -2.515625 17.09375 -3.285156 18.28125 -4.828125 C 19.46875 -6.367188 20.0625 -8.625 20.0625 -11.59375 C 20.0625 -14.539062 19.46875 -16.773438 18.28125 -18.296875 C 17.09375 -19.828125 15.335938 -20.59375 13.015625 -20.59375 C 10.710938 -20.59375 8.976562 -19.835938 7.8125 -18.328125 C 6.644531 -16.828125 6.0625 -14.582031 6.0625 -11.59375 Z M 6.0625 -11.59375 "/></g></g></g><g fill="#a6a6a6" fill-opacity="1"><g transform="translate(465.224479, 475.554628)"><g/></g></g><g fill="#a6a6a6" fill-opacity="1"><g transform="translate(481.222975, 475.554628)"><g><path d="M 27.5625 -30.890625 L 27.5625 -10.90625 C 27.5625 -7.382812 26.5 -4.613281 24.375 -2.59375 C 22.25 -0.582031 19.328125 0.421875 15.609375 0.421875 C 11.890625 0.421875 9.007812 -0.585938 6.96875 -2.609375 C 4.9375 -4.640625 3.921875 -7.429688 3.921875 -10.984375 L 3.921875 -30.890625 L 7.515625 -30.890625 L 7.515625 -10.734375 C 7.515625 -8.148438 8.21875 -6.164062 9.625 -4.78125 C 11.039062 -3.40625 13.113281 -2.71875 15.84375 -2.71875 C 18.445312 -2.71875 20.453125 -3.410156 21.859375 -4.796875 C 23.273438 -6.191406 23.984375 -8.1875 23.984375 -10.78125 L 23.984375 -30.890625 Z M 27.5625 -30.890625 "/></g></g></g><g fill="#a6a6a6" fill-opacity="1"><g transform="translate(517.480427, 475.554628)"><g><path d="M 14.5 0.421875 C 12.988281 0.421875 11.609375 0.144531 10.359375 -0.40625 C 9.117188 -0.96875 8.070312 -1.828125 7.21875 -2.984375 L 6.96875 -2.984375 C 7.132812 -1.628906 7.21875 -0.347656 7.21875 0.859375 L 7.21875 10.390625 L 3.71875 10.390625 L 3.71875 -23.15625 L 6.5625 -23.15625 L 7.0625 -19.984375 L 7.21875 -19.984375 C 8.125 -21.253906 9.175781 -22.171875 10.375 -22.734375 C 11.570312 -23.296875 12.945312 -23.578125 14.5 -23.578125 C 17.5625 -23.578125 19.925781 -22.523438 21.59375 -20.421875 C 23.269531 -18.328125 24.109375 -15.382812 24.109375 -11.59375 C 24.109375 -7.789062 23.257812 -4.835938 21.5625 -2.734375 C 19.863281 -0.628906 17.507812 0.421875 14.5 0.421875 Z M 13.984375 -20.59375 C 11.617188 -20.59375 9.90625 -19.9375 8.84375 -18.625 C 7.789062 -17.320312 7.25 -15.238281 7.21875 -12.375 L 7.21875 -11.59375 C 7.21875 -8.34375 7.757812 -6.015625 8.84375 -4.609375 C 9.9375 -3.210938 11.675781 -2.515625 14.0625 -2.515625 C 16.0625 -2.515625 17.628906 -3.320312 18.765625 -4.9375 C 19.898438 -6.5625 20.46875 -8.796875 20.46875 -11.640625 C 20.46875 -14.523438 19.898438 -16.738281 18.765625 -18.28125 C 17.628906 -19.820312 16.035156 -20.59375 13.984375 -20.59375 Z M 13.984375 -20.59375 "/></g></g></g><g fill="#a6a6a6" fill-opacity="1"><g transform="translate(548.752362, 475.554628)"><g/></g></g><g fill="#a6a6a6" fill-opacity="1"><g transform="translate(564.750858, 475.554628)"><g><path d="M 0.046875 -23.15625 L 3.796875 -23.15625 L 8.875 -9.953125 C 9.988281 -6.929688 10.675781 -4.753906 10.9375 -3.421875 L 11.109375 -3.421875 C 11.296875 -4.140625 11.679688 -5.367188 12.265625 -7.109375 C 12.847656 -8.847656 14.757812 -14.195312 18 -23.15625 L 21.765625 -23.15625 L 11.8125 3.21875 C 10.820312 5.820312 9.664062 7.664062 8.34375 8.75 C 7.03125 9.84375 5.414062 10.390625 3.5 10.390625 C 2.4375 10.390625 1.382812 10.269531 0.34375 10.03125 L 0.34375 7.21875 C 1.113281 7.394531 1.976562 7.484375 2.9375 7.484375 C 5.34375 7.484375 7.0625 6.128906 8.09375 3.421875 L 9.375 0.125 Z M 0.046875 -23.15625 "/></g></g></g><g fill="#a6a6a6" fill-opacity="1"><g transform="translate(591.311888, 475.554628)"><g><path d="M 23.703125 -11.59375 C 23.703125 -7.820312 22.75 -4.875 20.84375 -2.75 C 18.945312 -0.632812 16.320312 0.421875 12.96875 0.421875 C 10.894531 0.421875 9.054688 -0.0625 7.453125 -1.03125 C 5.847656 -2.007812 4.609375 -3.40625 3.734375 -5.21875 C 2.859375 -7.03125 2.421875 -9.15625 2.421875 -11.59375 C 2.421875 -15.375 3.363281 -18.316406 5.25 -20.421875 C 7.144531 -22.523438 9.769531 -23.578125 13.125 -23.578125 C 16.363281 -23.578125 18.9375 -22.5 20.84375 -20.34375 C 22.75 -18.1875 23.703125 -15.269531 23.703125 -11.59375 Z M 6.0625 -11.59375 C 6.0625 -8.632812 6.648438 -6.378906 7.828125 -4.828125 C 9.015625 -3.285156 10.757812 -2.515625 13.0625 -2.515625 C 15.351562 -2.515625 17.09375 -3.285156 18.28125 -4.828125 C 19.46875 -6.367188 20.0625 -8.625 20.0625 -11.59375 C 20.0625 -14.539062 19.46875 -16.773438 18.28125 -18.296875 C 17.09375 -19.828125 15.335938 -20.59375 13.015625 -20.59375 C 10.710938 -20.59375 8.976562 -19.835938 7.8125 -18.328125 C 6.644531 -16.828125 6.0625 -14.582031 6.0625 -11.59375 Z M 6.0625 -11.59375 "/></g></g></g><g fill="#a6a6a6" fill-opacity="1"><g transform="translate(622.203573, 475.554628)"><g><path d="M 7.015625 -23.15625 L 7.015625 -8.140625 C 7.015625 -6.242188 7.441406 -4.832031 8.296875 -3.90625 C 9.160156 -2.976562 10.507812 -2.515625 12.34375 -2.515625 C 14.757812 -2.515625 16.523438 -3.175781 17.640625 -4.5 C 18.765625 -5.820312 19.328125 -7.984375 19.328125 -10.984375 L 19.328125 -23.15625 L 22.84375 -23.15625 L 22.84375 0 L 19.9375 0 L 19.4375 -3.109375 L 19.25 -3.109375 C 18.53125 -1.960938 17.53125 -1.085938 16.25 -0.484375 C 14.976562 0.117188 13.523438 0.421875 11.890625 0.421875 C 9.078125 0.421875 6.96875 -0.242188 5.5625 -1.578125 C 4.164062 -2.921875 3.46875 -5.0625 3.46875 -8 L 3.46875 -23.15625 Z M 7.015625 -23.15625 "/></g></g></g><g fill="#a6a6a6" fill-opacity="1"><g transform="translate(653.517788, 475.554628)"><g><path d="M 14.28125 -23.578125 C 15.3125 -23.578125 16.234375 -23.492188 17.046875 -23.328125 L 16.5625 -20.0625 C 15.601562 -20.28125 14.757812 -20.390625 14.03125 -20.390625 C 12.15625 -20.390625 10.550781 -19.628906 9.21875 -18.109375 C 7.882812 -16.585938 7.21875 -14.691406 7.21875 -12.421875 L 7.21875 0 L 3.71875 0 L 3.71875 -23.15625 L 6.609375 -23.15625 L 7.015625 -18.859375 L 7.1875 -18.859375 C 8.039062 -20.367188 9.070312 -21.53125 10.28125 -22.34375 C 11.5 -23.164062 12.832031 -23.578125 14.28125 -23.578125 Z M 14.28125 -23.578125 "/></g></g></g><g fill="#a6a6a6" fill-opacity="1"><g transform="translate(675.938305, 475.554628)"><g/></g></g><g fill="#a6a6a6" fill-opacity="1"><g transform="translate(691.936801, 475.554628)"><g><path d="M 17.828125 -16.1875 L 28.328125 -16.1875 L 28.328125 -1.15625 C 26.691406 -0.632812 25.03125 -0.242188 23.34375 0.015625 C 21.65625 0.285156 19.695312 0.421875 17.46875 0.421875 C 12.789062 0.421875 9.148438 -0.96875 6.546875 -3.75 C 3.941406 -6.53125 2.640625 -10.425781 2.640625 -15.4375 C 2.640625 -18.65625 3.28125 -21.46875 4.5625 -23.875 C 5.851562 -26.289062 7.710938 -28.132812 10.140625 -29.40625 C 12.566406 -30.6875 15.40625 -31.328125 18.65625 -31.328125 C 21.945312 -31.328125 25.015625 -30.722656 27.859375 -29.515625 L 26.46875 -26.34375 C 23.675781 -27.53125 20.992188 -28.125 18.421875 -28.125 C 14.660156 -28.125 11.722656 -27.003906 9.609375 -24.765625 C 7.492188 -22.523438 6.4375 -19.414062 6.4375 -15.4375 C 6.4375 -11.269531 7.453125 -8.109375 9.484375 -5.953125 C 11.523438 -3.796875 14.519531 -2.71875 18.46875 -2.71875 C 20.601562 -2.71875 22.691406 -2.96875 24.734375 -3.46875 L 24.734375 -12.96875 L 17.828125 -12.96875 Z M 17.828125 -16.1875 "/></g></g></g><g fill="#a6a6a6" fill-opacity="1"><g transform="translate(728.194253, 475.554628)"><g><path d="M 14.28125 -23.578125 C 15.3125 -23.578125 16.234375 -23.492188 17.046875 -23.328125 L 16.5625 -20.0625 C 15.601562 -20.28125 14.757812 -20.390625 14.03125 -20.390625 C 12.15625 -20.390625 10.550781 -19.628906 9.21875 -18.109375 C 7.882812 -16.585938 7.21875 -14.691406 7.21875 -12.421875 L 7.21875 0 L 3.71875 0 L 3.71875 -23.15625 L 6.609375 -23.15625 L 7.015625 -18.859375 L 7.1875 -18.859375 C 8.039062 -20.367188 9.070312 -21.53125 10.28125 -22.34375 C 11.5 -23.164062 12.832031 -23.578125 14.28125 -23.578125 Z M 14.28125 -23.578125 "/></g></g></g><g fill="#a6a6a6" fill-opacity="1"><g transform="translate(750.614769, 475.554628)"><g><path d="M 17.953125 0 L 17.265625 -3.296875 L 17.09375 -3.296875 C 15.9375 -1.847656 14.785156 -0.863281 13.640625 -0.34375 C 12.492188 0.164062 11.0625 0.421875 9.34375 0.421875 C 7.039062 0.421875 5.238281 -0.164062 3.9375 -1.34375 C 2.632812 -2.53125 1.984375 -4.21875 1.984375 -6.40625 C 1.984375 -11.082031 5.722656 -13.53125 13.203125 -13.75 L 17.140625 -13.875 L 17.140625 -15.3125 C 17.140625 -17.132812 16.742188 -18.476562 15.953125 -19.34375 C 15.171875 -20.207031 13.921875 -20.640625 12.203125 -20.640625 C 10.273438 -20.640625 8.09375 -20.046875 5.65625 -18.859375 L 4.578125 -21.546875 C 5.722656 -22.171875 6.972656 -22.65625 8.328125 -23 C 9.691406 -23.351562 11.054688 -23.53125 12.421875 -23.53125 C 15.179688 -23.53125 17.226562 -22.914062 18.5625 -21.6875 C 19.894531 -20.46875 20.5625 -18.503906 20.5625 -15.796875 L 20.5625 0 Z M 10.03125 -2.46875 C 12.21875 -2.46875 13.929688 -3.066406 15.171875 -4.265625 C 16.421875 -5.460938 17.046875 -7.140625 17.046875 -9.296875 L 17.046875 -11.390625 L 13.546875 -11.234375 C 10.753906 -11.140625 8.738281 -10.707031 7.5 -9.9375 C 6.269531 -9.164062 5.65625 -7.972656 5.65625 -6.359375 C 5.65625 -5.085938 6.039062 -4.117188 6.8125 -3.453125 C 7.582031 -2.796875 8.65625 -2.46875 10.03125 -2.46875 Z M 10.03125 -2.46875 "/></g></g></g><g fill="#a6a6a6" fill-opacity="1"><g transform="translate(779.436197, 475.554628)"><g><path d="M 19.484375 -3.109375 L 19.28125 -3.109375 C 17.664062 -0.753906 15.242188 0.421875 12.015625 0.421875 C 8.992188 0.421875 6.640625 -0.609375 4.953125 -2.671875 C 3.265625 -4.742188 2.421875 -7.691406 2.421875 -11.515625 C 2.421875 -15.328125 3.265625 -18.289062 4.953125 -20.40625 C 6.648438 -22.519531 9.003906 -23.578125 12.015625 -23.578125 C 15.160156 -23.578125 17.570312 -22.4375 19.25 -20.15625 L 19.515625 -20.15625 L 19.375 -21.828125 L 19.28125 -23.453125 L 19.28125 -32.875 L 22.796875 -32.875 L 22.796875 0 L 19.9375 0 Z M 12.46875 -2.515625 C 14.863281 -2.515625 16.597656 -3.164062 17.671875 -4.46875 C 18.742188 -5.769531 19.28125 -7.875 19.28125 -10.78125 L 19.28125 -11.515625 C 19.28125 -14.796875 18.734375 -17.132812 17.640625 -18.53125 C 16.554688 -19.9375 14.816406 -20.640625 12.421875 -20.640625 C 10.367188 -20.640625 8.796875 -19.835938 7.703125 -18.234375 C 6.609375 -16.640625 6.0625 -14.382812 6.0625 -11.46875 C 6.0625 -8.507812 6.601562 -6.273438 7.6875 -4.765625 C 8.769531 -3.265625 10.363281 -2.515625 12.46875 -2.515625 Z M 12.46875 -2.515625 "/></g></g></g><g fill="#a6a6a6" fill-opacity="1"><g transform="translate(810.708132, 475.554628)"><g><path d="M 13.5 0.421875 C 10.070312 0.421875 7.367188 -0.617188 5.390625 -2.703125 C 3.410156 -4.785156 2.421875 -7.679688 2.421875 -11.390625 C 2.421875 -15.117188 3.335938 -18.082031 5.171875 -20.28125 C 7.015625 -22.476562 9.488281 -23.578125 12.59375 -23.578125 C 15.488281 -23.578125 17.78125 -22.617188 19.46875 -20.703125 C 21.164062 -18.796875 22.015625 -16.28125 22.015625 -13.15625 L 22.015625 -10.9375 L 6.0625 -10.9375 C 6.132812 -8.21875 6.820312 -6.15625 8.125 -4.75 C 9.425781 -3.34375 11.257812 -2.640625 13.625 -2.640625 C 16.113281 -2.640625 18.578125 -3.160156 21.015625 -4.203125 L 21.015625 -1.078125 C 19.773438 -0.546875 18.601562 -0.164062 17.5 0.0625 C 16.394531 0.300781 15.0625 0.421875 13.5 0.421875 Z M 12.546875 -20.640625 C 10.691406 -20.640625 9.207031 -20.03125 8.09375 -18.8125 C 6.988281 -17.601562 6.335938 -15.929688 6.140625 -13.796875 L 18.25 -13.796875 C 18.25 -16.003906 17.753906 -17.695312 16.765625 -18.875 C 15.785156 -20.050781 14.378906 -20.640625 12.546875 -20.640625 Z M 12.546875 -20.640625 "/></g></g></g><g fill="#a6a6a6" fill-opacity="1"><g transform="translate(839.74084, 475.554628)"><g><path d="M 18.65625 -6.3125 C 18.65625 -4.15625 17.851562 -2.492188 16.25 -1.328125 C 14.644531 -0.160156 12.390625 0.421875 9.484375 0.421875 C 6.410156 0.421875 4.015625 -0.0625 2.296875 -1.03125 L 2.296875 -4.28125 C 3.410156 -3.71875 4.601562 -3.273438 5.875 -2.953125 C 7.15625 -2.628906 8.382812 -2.46875 9.5625 -2.46875 C 11.394531 -2.46875 12.804688 -2.757812 13.796875 -3.34375 C 14.785156 -3.925781 15.28125 -4.816406 15.28125 -6.015625 C 15.28125 -6.921875 14.882812 -7.691406 14.09375 -8.328125 C 13.3125 -8.972656 11.789062 -9.734375 9.53125 -10.609375 C 7.375 -11.410156 5.835938 -12.109375 4.921875 -12.703125 C 4.015625 -13.304688 3.335938 -13.988281 2.890625 -14.75 C 2.453125 -15.507812 2.234375 -16.414062 2.234375 -17.46875 C 2.234375 -19.351562 3 -20.84375 4.53125 -21.9375 C 6.070312 -23.03125 8.179688 -23.578125 10.859375 -23.578125 C 13.347656 -23.578125 15.785156 -23.070312 18.171875 -22.0625 L 16.921875 -19.203125 C 14.597656 -20.160156 12.492188 -20.640625 10.609375 -20.640625 C 8.941406 -20.640625 7.6875 -20.378906 6.84375 -19.859375 C 6 -19.335938 5.578125 -18.617188 5.578125 -17.703125 C 5.578125 -17.085938 5.734375 -16.5625 6.046875 -16.125 C 6.367188 -15.6875 6.878906 -15.269531 7.578125 -14.875 C 8.285156 -14.476562 9.640625 -13.90625 11.640625 -13.15625 C 14.390625 -12.15625 16.242188 -11.148438 17.203125 -10.140625 C 18.171875 -9.128906 18.65625 -7.851562 18.65625 -6.3125 Z M 18.65625 -6.3125 "/></g></g></g></svg>